<svg width="50" height="43" viewBox="0 0 50 43" fill="none" xmlns="http://www.w3.org/2000/svg">
<path fill-rule="evenodd" clip-rule="evenodd" d="M15.4 0C14.078 0.000426406 12.7796 0.350269 11.6364 1.01408C10.4932 1.6779 9.5457 2.63209 8.89 3.78L3.9075 12.5H1C0.734785 12.5 0.480431 12.6054 0.292894 12.7929C0.105358 12.9804 1.20747e-06 13.2348 1.20747e-06 13.5V14.6875C-0.000489159 15.1339 0.148391 15.5677 0.422936 15.9197C0.697481 16.2717 1.08191 16.5217 1.515 16.63L1.575 16.6425C0.531091 18.8092 0.134398 21.231 0.432501 23.6175L2.245 38.12C2.39614 39.3295 2.98389 40.4421 3.89774 41.2487C4.81159 42.0553 5.98861 42.5003 7.2075 42.5H7.5C8.82608 42.5 10.0979 41.9732 11.0355 41.0355C11.9732 40.0979 12.5 38.8261 12.5 37.5H37.5C37.5 38.8261 38.0268 40.0979 38.9645 41.0355C39.9022 41.9732 41.1739 42.5 42.5 42.5H42.7925C44.0114 42.5003 45.1884 42.0553 46.1023 41.2487C47.0161 40.4421 47.6039 39.3295 47.755 38.12L49.5675 23.62C49.8656 21.2335 49.4689 18.8117 48.425 16.645L48.485 16.63C48.9181 16.5217 49.3025 16.2717 49.5771 15.9197C49.8516 15.5677 50.0005 15.1339 50 14.6875V13.5C50 13.2348 49.8946 12.9804 49.7071 12.7929C49.5196 12.6054 49.2652 12.5 49 12.5H46.0925L41.11 3.78C40.4543 2.63209 39.5068 1.6779 38.3636 1.01408C37.2204 0.350269 35.922 0.000426406 34.6 0H15.4ZM41.055 13.76L36.77 6.26C36.5512 5.877 36.235 5.55869 35.8535 5.3374C35.4719 5.11611 35.0386 4.9997 34.5975 5H15.4025C14.9614 4.9997 14.5281 5.11611 14.1465 5.3374C13.765 5.55869 13.4488 5.877 13.23 6.26L8.945 13.76C8.72785 14.1401 8.61434 14.5707 8.61582 15.0084C8.6173 15.4462 8.73372 15.876 8.95343 16.2546C9.17314 16.6333 9.48844 16.9476 9.86778 17.1662C10.2471 17.3848 10.6772 17.4999 11.115 17.5H38.885C39.3228 17.4999 39.7529 17.3848 40.1322 17.1662C40.5116 16.9476 40.8269 16.6333 41.0466 16.2546C41.2663 15.876 41.3827 15.4462 41.3842 15.0084C41.3857 14.5707 41.2721 14.1401 41.055 13.76ZM7.5 27.5975V25.8475C7.49988 25.6309 7.55603 25.4181 7.66294 25.2297C7.76985 25.0414 7.92386 24.8841 8.10988 24.7731C8.29589 24.6622 8.50753 24.6016 8.72405 24.5971C8.94057 24.5926 9.15454 24.6444 9.345 24.7475L16.2 28.4475C17.1325 28.9525 16.745 30.37 15.685 30.3275L9.9 30.095C9.25531 30.0692 8.64556 29.7951 8.19826 29.3301C7.75097 28.8651 7.50078 28.2452 7.5 27.6V27.5975ZM42.5 25.8475V27.5975C42.5005 28.2436 42.2509 28.8648 41.8035 29.3308C41.356 29.7969 40.7456 30.0717 40.1 30.0975L34.315 30.3275C33.255 30.37 32.865 28.9525 33.8 28.4475L40.655 24.7475C40.8455 24.6444 41.0594 24.5926 41.2759 24.5971C41.4925 24.6016 41.7041 24.6622 41.8901 24.7731C42.0761 24.8841 42.2301 25.0414 42.3371 25.2297C42.444 25.4181 42.5001 25.6309 42.5 25.8475Z" fill="black"/>
</svg>
