<svg width="42" height="43" viewBox="0 0 42 43" fill="none" xmlns="http://www.w3.org/2000/svg">
<path d="M22.8375 28.8379H19.5475C17.22 28.8379 15.3125 26.8779 15.3125 24.4629C15.3125 23.7454 15.9075 23.1504 16.625 23.1504C17.3425 23.1504 17.9375 23.7454 17.9375 24.4629C17.9375 25.4254 18.655 26.2129 19.5475 26.2129H22.8375C23.52 26.2129 24.0625 25.6004 24.0625 24.8479C24.0625 23.9029 23.8 23.7629 23.205 23.5529L17.9375 21.7154C16.8175 21.3304 15.3125 20.5079 15.3125 17.9354C15.3125 15.7479 17.045 13.9454 19.1625 13.9454H22.4525C24.78 13.9454 26.6875 15.9054 26.6875 18.3204C26.6875 19.0379 26.0925 19.6329 25.375 19.6329C24.6575 19.6329 24.0625 19.0379 24.0625 18.3204C24.0625 17.3579 23.345 16.5704 22.4525 16.5704H19.1625C18.48 16.5704 17.9375 17.1829 17.9375 17.9354C17.9375 18.8804 18.2 19.0204 18.795 19.2304L24.0625 21.0679C25.1825 21.4529 26.6875 22.2754 26.6875 24.8479C26.6875 27.0529 24.955 28.8379 22.8375 28.8379Z" fill="#DA001A"/>
<path d="M21 30.5875C20.2825 30.5875 19.6875 29.9925 19.6875 29.275V13.525C19.6875 12.8075 20.2825 12.2125 21 12.2125C21.7175 12.2125 22.3125 12.8075 22.3125 13.525V29.275C22.3125 29.9925 21.7175 30.5875 21 30.5875Z" fill="#DA001A"/>
<path d="M21 40.2125C10.6225 40.2125 2.1875 31.7775 2.1875 21.4C2.1875 11.0225 10.6225 2.58752 21 2.58752C21.7175 2.58752 22.3125 3.18252 22.3125 3.90002C22.3125 4.61752 21.7175 5.21252 21 5.21252C12.075 5.21252 4.8125 12.475 4.8125 21.4C4.8125 30.325 12.075 37.5875 21 37.5875C29.925 37.5875 37.1875 30.325 37.1875 21.4C37.1875 20.6825 37.7825 20.0875 38.5 20.0875C39.2175 20.0875 39.8125 20.6825 39.8125 21.4C39.8125 31.7775 31.3775 40.2125 21 40.2125Z" fill="#DA001A"/>
<path d="M36.75 13.9625H29.75C29.0325 13.9625 28.4375 13.3675 28.4375 12.65V5.65002C28.4375 4.93252 29.0325 4.33752 29.75 4.33752C30.4675 4.33752 31.0625 4.93252 31.0625 5.65002V11.3375H36.75C37.4675 11.3375 38.0625 11.9325 38.0625 12.65C38.0625 13.3675 37.4675 13.9625 36.75 13.9625Z" fill="#DA001A"/>
<path d="M29.749 13.9633C29.4165 13.9633 29.084 13.8408 28.8215 13.5783C28.314 13.0708 28.314 12.2308 28.8215 11.7233L37.5715 2.97328C38.079 2.46578 38.919 2.46578 39.4265 2.97328C39.934 3.48078 39.934 4.32078 39.4265 4.82828L30.6765 13.5783C30.414 13.8408 30.0815 13.9633 29.749 13.9633Z" fill="#DA001A"/>
</svg>
