<svg width="26" height="42" viewBox="0 0 26 42" fill="none" xmlns="http://www.w3.org/2000/svg">
<path d="M1.67422 16.9747C1.54701 16.267 1.43559 15.5346 1.34814 14.7857C0.481574 7.46971 2.02396 1.25639 4.7906 0.902526C7.55724 0.548658 10.5147 6.20233 11.3813 13.5184C11.4767 14.3413 11.5482 15.2054 11.588 15.9872M2.15121 4.91029L5.60951 6.25992M1.10974 9.66693L5.36305 11.5762M4.77474 35.9519H20.9691M13.0587 17.271C12.4912 16.7116 12.0394 16.0389 11.7305 15.2934C11.4217 14.5479 11.2622 13.7452 11.262 12.9341C11.262 11.3487 11.87 9.82822 12.9522 8.70646C14.0343 7.58469 15.5023 6.95339 17.0338 6.95121C18.5666 6.95121 20.0367 7.58154 21.1206 8.70354C22.2045 9.82554 22.8135 11.3473 22.8135 12.9341C22.8147 13.6035 22.7073 14.2683 22.4956 14.9009M17.0337 8.93449C17.0337 8.93449 16.8588 5.18184 19.5936 3.37135M1.45962 17.271L3.04964 15.0902C3.1647 14.9349 3.31271 14.809 3.48228 14.7224C3.65184 14.6358 3.83841 14.5908 4.02749 14.5908C4.21657 14.5908 4.40313 14.6358 4.5727 14.7224C4.74227 14.809 4.89028 14.9349 5.00534 15.0902L6.47599 17.0817C6.53304 17.1601 6.60698 17.2237 6.69182 17.2675C6.77667 17.3113 6.8701 17.3341 6.96492 17.3341C7.05973 17.3341 7.15335 17.3113 7.2382 17.2675C7.32305 17.2237 7.39679 17.1601 7.45384 17.0817L8.92469 15.0902C9.03975 14.9349 9.18776 14.809 9.35733 14.7224C9.52689 14.6358 9.71346 14.5908 9.90254 14.5908C10.0916 14.5908 10.2782 14.6358 10.4477 14.7224C10.6173 14.809 10.7653 14.9349 10.8804 15.0902C10.8804 15.0902 11.6754 16.1847 12.2796 17.0159C12.3449 17.1046 12.4292 17.1765 12.5257 17.226C12.6223 17.2755 12.7284 17.3012 12.8361 17.3012C12.9438 17.3012 13.0501 17.2755 13.1466 17.226C13.2432 17.1765 13.3275 17.1046 13.3927 17.0159L14.8236 15.1066C14.9379 14.9514 15.0852 14.8256 15.2541 14.739C15.423 14.6524 15.6091 14.6073 15.7976 14.6073C15.9861 14.6073 16.1721 14.6524 16.341 14.739C16.51 14.8256 16.6573 14.9514 16.7715 15.1066L18.2422 17.0982C18.3001 17.1767 18.3747 17.2403 18.4602 17.284C18.5457 17.3278 18.6398 17.3506 18.7352 17.3506C18.8306 17.3506 18.9245 17.3278 19.01 17.284C19.0955 17.2403 19.1701 17.1767 19.228 17.0982L20.6989 15.1066C20.8131 14.9514 20.9604 14.8256 21.1294 14.739C21.2983 14.6524 21.4841 14.6073 21.6726 14.6073C21.8611 14.6073 22.0472 14.6524 22.2161 14.739C22.385 14.8256 22.5324 14.9514 22.6466 15.1066L24.2366 17.2874C24.4611 17.5991 24.5835 17.9768 24.5864 18.3655V38.6677C24.5864 38.9411 24.5343 39.2118 24.4332 39.4644C24.3322 39.717 24.1841 39.9466 23.9973 40.1399C23.8105 40.3332 23.5888 40.4866 23.3448 40.5912C23.1007 40.6959 22.8391 40.7497 22.575 40.7497H3.07351C2.54144 40.7476 2.03172 40.5272 1.65623 40.137C1.28075 39.7468 1.07006 39.2184 1.07007 38.6677V18.349C1.08022 17.9548 1.21732 17.5753 1.45962 17.271Z" stroke="#F1FFF3" stroke-width="1.69934" stroke-linecap="round" stroke-linejoin="round"/>
</svg>
