<svg width="40" height="37" viewBox="0 0 40 37" fill="none" xmlns="http://www.w3.org/2000/svg">
<path d="M16.6677 26.3363H24.6178C25.3488 26.3341 26.0493 26.0326 26.5662 25.4975C27.0831 24.9625 27.3744 24.2374 27.3765 23.4807C27.3723 22.7254 27.0801 22.0025 26.5634 21.4692C26.0468 20.9359 25.3475 20.6354 24.6178 20.6333H19.5774C18.4463 20.6194 17.3236 20.4308 16.2463 20.0737C14.2509 19.6293 11.0232 19.6046 9.54446 23.4807H6.36441M27.3367 23.4807L34.4918 19.119C35.1162 18.7274 35.8653 18.608 36.5747 18.7869C37.284 18.9659 37.8957 19.4285 38.2761 20.0736C38.653 20.7196 38.7685 21.4934 38.5973 22.2269C38.4261 22.9604 37.9821 23.5943 37.3619 23.9909L28.0046 31.2822C26.3364 32.5818 24.3047 33.2837 22.2169 33.282H6.31666M24.6815 10.5686L22.7336 12.5931C22.7217 12.6058 22.7075 12.6159 22.6918 12.6228C22.6761 12.6296 22.6592 12.6331 22.6422 12.6331C22.6251 12.6331 22.6084 12.6296 22.5927 12.6228C22.577 12.6159 22.5626 12.6058 22.5507 12.5931L21.3503 10.5604H16.1033C15.6419 11.8031 14.8272 12.8719 13.767 13.6256C12.7067 14.3793 11.4508 14.7825 10.1646 14.7821C8.47779 14.7821 6.85997 14.0885 5.66722 12.8538C4.47448 11.6191 3.8045 9.94457 3.8045 8.1985C3.8045 6.45242 4.47448 4.77785 5.66722 3.54319C6.85997 2.30852 8.47779 1.6149 10.1646 1.6149C11.4498 1.61384 12.7051 2.01589 13.7652 2.76805C14.8254 3.52021 15.6406 4.58718 16.1033 5.8284H27.7979L30.7871 8.45361L26.8121 12.7082L24.6815 10.6097M6.33258 22.024C6.33258 21.9062 6.28732 21.7931 6.20681 21.7098C6.1263 21.6265 6.0171 21.5797 5.90324 21.5797H1.71352C1.59966 21.5797 1.49046 21.6265 1.40995 21.7098C1.32944 21.7931 1.28418 21.9062 1.28418 22.024V34.7221C1.28418 34.84 1.32944 34.953 1.40995 35.0364C1.49046 35.1197 1.59966 35.1666 1.71352 35.1666H5.90324C6.0171 35.1666 6.1263 35.1197 6.20681 35.0364C6.28732 34.953 6.33258 34.84 6.33258 34.7221V22.024Z" stroke="#F1FFF3" stroke-width="1.69934" stroke-linecap="round" stroke-linejoin="round"/>
</svg>
