<svg width="39" height="37" viewBox="0 0 39 37" fill="none" xmlns="http://www.w3.org/2000/svg">
<path d="M26.2882 18.0745L15.8616 25.0012C15.7189 25.096 15.5343 25.1 15.3876 25.0116L2.0555 16.9736C1.77698 16.8057 1.76824 16.4049 2.03918 16.225L23.5419 1.94757C23.6845 1.85286 23.8689 1.84881 24.0156 1.93717L37.3476 9.96892C37.6262 10.1368 37.635 10.5376 37.3641 10.7175L30.987 14.9532M26.2945 23.5302L15.8615 30.4571C15.7188 30.5518 15.5344 30.5559 15.3877 30.4675L2.05539 22.4355C1.77687 22.2677 1.76793 21.8671 2.03869 21.687L5.7654 19.2089M33.6379 13.1958L37.3474 15.431C37.626 15.5989 37.6348 15.9999 37.3637 16.1797L30.9305 20.4482M33.8892 18.481L37.376 20.7178C37.6452 20.8905 37.6484 21.2829 37.3819 21.4599L15.8616 35.7553C15.7189 35.8501 15.5343 35.8542 15.3876 35.7657L2.05549 27.7277C1.77697 27.5598 1.76824 27.159 2.03917 26.9791L5.63348 24.5925M17.0052 6.59308L30.7161 14.8567C30.8491 14.9369 30.9305 15.0809 30.9305 15.2362V25.5025C30.9305 25.6509 30.8562 25.7894 30.7327 25.8715L26.9829 28.3644C26.6884 28.5602 26.2945 28.349 26.2945 27.9954V18.3247C26.2945 18.1694 26.2132 18.0254 26.0802 17.9452L12.7278 9.89142C12.4494 9.72352 12.4406 9.32298 12.7113 9.14301L16.5312 6.60358C16.6739 6.50872 16.8585 6.50463 17.0052 6.59308Z" stroke="#F1FFF3" stroke-width="1.77237" stroke-linecap="round" stroke-linejoin="round"/>
</svg>
